<svg xmlns="http://www.w3.org/2000/svg" width="60" height="40" viewBox="0 0 60 40" role="img" aria-labelledby="title desc">
  <title id="title">Bandera de Reino Unido</title>
  <desc id="desc">Bandera azul con cruces blanca y roja.</desc>
  <rect width="60" height="40" fill="#012169"/><polygon points="0,0 7,0 60,33 60,40 53,40 0,7" fill="#FFF"/><polygon points="60,0 53,0 0,33 0,40 7,40 60,7" fill="#FFF"/><polygon points="0,0 4,0 60,35 60,40 56,40 0,5" fill="#C8102E"/><polygon points="60,0 56,0 0,35 0,40 4,40 60,5" fill="#C8102E"/><rect x="24" width="12" height="40" fill="#FFF"/><rect y="14" width="60" height="12" fill="#FFF"/><rect x="27" width="6" height="40" fill="#C8102E"/><rect y="17" width="60" height="6" fill="#C8102E"/>
</svg>
